HIERARCHY
ROOT joint_Root
{
	OFFSET 0.0 0.0 0.0
	CHANNELS 6 Xposition Yposition Zposition Zrotation Xrotation Yrotation 
	JOINT Hips
	{
		OFFSET -17.1583 93.1646 452.98
		CHANNELS 6 Xposition Yposition Zposition Zrotation Xrotation Yrotation 
		JOINT Spine
		{
			OFFSET 15.7357 0.0 0.0
			CHANNELS 6 Xposition Yposition Zposition Zrotation Xrotation Yrotation 
			JOINT Chest
			{
				OFFSET 8.98455 -0.406207 0.0
				CHANNELS 6 Xposition Yposition Zposition Zrotation Xrotation Yrotation 
				JOINT Neck
				{
					OFFSET 16.3773 0.0 0.0
					CHANNELS 6 Xposition Yposition Zposition Zrotation Xrotation Yrotation 
					JOINT Head
					{
						OFFSET 6.45672 0.0 0.0
						CHANNELS 6 Xposition Yposition Zposition Zrotation Xrotation Yrotation 
						End Site
						{
							OFFSET 0.0 0.0 0.0
						}
					}
				}
				JOINT Shoulder_L
				{
					OFFSET 12.9942 -0.242716 4.98039
					CHANNELS 6 Xposition Yposition Zposition Zrotation Xrotation Yrotation 
					JOINT UpperArm_L
					{
						OFFSET 5.34809 0.0 0.0
						CHANNELS 6 Xposition Yposition Zposition Zrotation Xrotation Yrotation 
						JOINT LowerArm_L
						{
							OFFSET 24.3286 1.87007e-05 0.0
							CHANNELS 6 Xposition Yposition Zposition Zrotation Xrotation Yrotation 
							JOINT Hand_L
							{
								OFFSET 22.2916 0.0 0.0
								CHANNELS 6 Xposition Yposition Zposition Zrotation Xrotation Yrotation 
								End Site
								{
									OFFSET 0.0 0.0 0.0
								}
							}
						}
					}
				}
				JOINT Shoulder_R
				{
					OFFSET 12.9945 -0.242716 -4.98039
					CHANNELS 6 Xposition Yposition Zposition Zrotation Xrotation Yrotation 
					JOINT UpperArm_R
					{
						OFFSET -5.34813 0.0 0.0
						CHANNELS 6 Xposition Yposition Zposition Zrotation Xrotation Yrotation 
						JOINT LowerArm_R
						{
							OFFSET -24.3289 0.000322201 0.0
							CHANNELS 6 Xposition Yposition Zposition Zrotation Xrotation Yrotation 
							JOINT Hand_R
							{
								OFFSET -22.2915 -0.000108084 0.0
								CHANNELS 6 Xposition Yposition Zposition Zrotation Xrotation Yrotation 
								End Site
								{
									OFFSET 0.0 0.0 0.0
								}
							}
						}
					}
				}
			}
		}
		JOINT UpperLeg_L
		{
			OFFSET -2.19248 -6.46944 0.0
			CHANNELS 6 Xposition Yposition Zposition Zrotation Xrotation Yrotation 
			JOINT LowerLeg_L
			{
				OFFSET 39.0811 0.0 -1.23785e-05
				CHANNELS 6 Xposition Yposition Zposition Zrotation Xrotation Yrotation 
				JOINT Foot_L
				{
					OFFSET 40.9854 0.0 -1.26872e-05
					CHANNELS 6 Xposition Yposition Zposition Zrotation Xrotation Yrotation 
					JOINT Toes_L
					{
						OFFSET 11.7543 0.0 0.0
						CHANNELS 6 Xposition Yposition Zposition Zrotation Xrotation Yrotation 
						End Site
						{
							OFFSET 0.0 0.0 0.0
						}
					}
				}
			}
		}
		JOINT UpperLeg_R
		{
			OFFSET -2.19251 6.46944 0.0
			CHANNELS 6 Xposition Yposition Zposition Zrotation Xrotation Yrotation 
			JOINT LowerLeg_R
			{
				OFFSET -39.0811 -0.00228153 -0.0401928
				CHANNELS 6 Xposition Yposition Zposition Zrotation Xrotation Yrotation 
				JOINT Foot_R
				{
					OFFSET -40.9854 0.0 0.0
					CHANNELS 6 Xposition Yposition Zposition Zrotation Xrotation Yrotation 
					JOINT Toes_R
					{
						OFFSET -11.7543 0.0 0.0
						CHANNELS 6 Xposition Yposition Zposition Zrotation Xrotation Yrotation 
						End Site
						{
							OFFSET 0.0 0.0 0.0
						}
					}
				}
			}
		}
	}
}
MOTION
Frames:	4
Frame Time:	0.0333333
0.000000 0.000000 0.000000 0.000000 0.000000 -0.000000 -1.443120 92.565300 3.827730 88.165600 -0.148875 1.709490 15.735700 0.000005 -0.000001 103.261000 89.720700 -101.963000 8.984550 -0.406207 -0.000000 -7.220490 -0.041655 2.596780 16.377300 -0.000001 -0.000001 -6.763500 3.337260 -2.924850 6.456720 -0.000001 -0.000000 10.182700 2.423180 -1.028740 12.994200 -0.242716 4.980390 -88.630500 -2.599170 -62.203200 5.348090 -0.000007 -0.000001 -49.097000 -59.335200 -119.111000 24.328600 0.000019 0.000005 19.608800 43.405000 -27.404800 22.291600 -0.000001 0.000005 62.804700 4.628110 14.428200 12.994500 -0.242716 -4.980390 93.597200 -7.280500 -63.615500 -5.348130 -0.000001 -0.000004 -42.678600 -61.990400 -107.866000 -24.328900 0.000322 -0.000009 6.405080 13.461800 -25.748100 -22.291500 -0.000108 -0.000004 45.938800 5.681720 -20.520600 -2.192480 -6.469440 -0.000000 -172.131000 -5.334060 2.773550 39.081100 -0.000007 -0.000012 0.001823 -0.006855 14.898700 40.985400 -0.000006 -0.000013 -1.313720 14.268500 -70.893800 11.754300 -0.000000 0.000003 -0.001790 0.193686 -8.719040 -2.192510 6.469440 -0.000001 177.074000 5.987200 -175.407000 -39.081100 -0.002282 -0.040193 0.009018 -0.025921 12.366300 -40.985400 0.000008 0.000006 -6.551650 4.456270 -70.089100 -11.754300 -0.000006 -0.000006 -0.010942 0.278214 -5.268320
0.000000 0.000000 0.000000 0.000000 0.000000 -0.000000 -1.467030 92.598700 3.683890 88.196000 -0.074512 1.525380 15.735700 0.000005 -0.000001 116.440000 89.702500 -115.193000 8.984550 -0.406207 -0.000000 -7.233240 0.101179 2.505730 16.377300 -0.000001 -0.000001 -6.901990 3.239750 -2.833290 6.456720 -0.000001 -0.000000 9.954050 2.275360 -0.794993 12.994200 -0.242716 4.980390 -88.518200 -2.786130 -61.979100 5.348090 -0.000007 -0.000001 -48.106600 -59.092600 -118.172000 24.328600 0.000019 0.000005 17.370600 41.612700 -25.222300 22.291600 -0.000001 0.000005 60.291200 4.657390 13.914400 12.994500 -0.242716 -4.980390 93.591400 -7.281890 -63.656600 -5.348130 -0.000001 -0.000004 -43.459800 -61.815900 -108.676000 -24.328900 0.000322 -0.000009 5.529910 12.276400 -24.484800 -22.291500 -0.000108 -0.000004 45.641100 5.681910 -20.649500 -2.192480 -6.469440 -0.000000 -172.149000 -5.406410 2.537490 39.081100 -0.000007 -0.000012 0.001710 -0.006490 14.761200 40.985400 -0.000006 -0.000013 -1.360050 14.385000 -70.776500 11.754300 -0.000000 0.000003 -0.001892 0.194991 -8.665950 -2.192510 6.469440 -0.000001 177.107000 6.077550 -175.649000 -39.081100 -0.002282 -0.040193 0.010077 -0.030986 12.274800 -40.985400 0.000008 0.000006 -6.418300 4.390140 -69.949200 -11.754300 -0.000006 -0.000006 -0.010719 0.276605 -5.334160
0.000000 0.000000 0.000000 0.000000 0.000000 -0.000000 -1.503450 92.651500 3.543720 88.177400 0.106161 1.313990 15.735700 0.000005 -0.000001 128.960000 89.684100 -127.745000 8.984550 -0.406207 -0.000000 -7.276160 0.236972 2.450540 16.377300 -0.000001 -0.000001 -6.948970 3.032150 -2.699740 6.456720 -0.000001 -0.000000 9.673000 2.073250 -0.780203 12.994200 -0.242716 4.980390 -88.534700 -2.744300 -61.885600 5.348090 -0.000007 -0.000001 -47.608100 -58.480300 -116.745000 24.328600 0.000019 0.000005 13.647100 37.238200 -21.861700 22.291600 -0.000001 0.000005 56.638100 4.655130 13.957300 12.994500 -0.242716 -4.980390 93.555700 -7.216280 -63.679300 -5.348130 -0.000001 -0.000004 -46.009900 -61.068800 -109.990000 -24.328900 0.000322 -0.000009 3.194990 7.762900 -22.457100 -22.291500 -0.000108 -0.000004 43.042500 5.674320 -18.082400 -2.192480 -6.469440 -0.000000 -172.132000 -5.340310 2.351990 39.081100 -0.000007 -0.000012 0.001668 -0.006477 14.447300 40.985400 -0.000006 -0.000013 -1.430530 14.461600 -70.563200 11.754300 -0.000000 0.000003 -0.001657 0.191965 -8.788990 -2.192510 6.469440 -0.000001 177.132000 6.256800 -175.745000 -39.081100 -0.002282 -0.040193 0.006414 -0.014632 11.882400 -40.985400 0.000008 0.000006 -6.734600 4.472020 -69.601600 -11.754300 -0.000006 -0.000006 -0.010721 0.276612 -5.333860
0.000000 0.000000 0.000000 0.000000 0.000000 -0.000000 -1.551970 92.679600 3.417250 88.155400 0.348320 1.090610 15.735700 0.000005 -0.000001 136.298000 89.681400 -135.127000 8.984550 -0.406207 -0.000000 -7.327860 0.305551 2.366160 16.377300 -0.000001 -0.000001 -7.034920 2.820150 -2.547640 6.456720 -0.000001 -0.000000 9.666780 1.977600 -0.726595 12.994200 -0.242716 4.980390 -88.570600 -2.667210 -61.799100 5.348090 -0.000007 -0.000001 -46.705000 -57.823100 -114.098000 24.328600 0.000019 0.000005 10.274200 32.999800 -18.407600 22.291600 -0.000001 0.000005 54.119400 4.581330 15.234900 12.994500 -0.242716 -4.980390 93.505300 -7.100520 -63.638900 -5.348130 -0.000001 -0.000004 -48.567400 -60.083100 -110.579000 -24.328900 0.000322 -0.000009 0.646308 1.832380 -19.440300 -22.291500 -0.000108 -0.000004 42.023000 5.655190 -15.533300 -2.192480 -6.469440 -0.000000 -172.116000 -5.146350 2.004010 39.081100 -0.000007 -0.000012 0.001011 -0.003936 14.406800 40.985400 -0.000006 -0.000013 -1.489210 14.460600 -70.489600 11.754300 -0.000000 0.000003 -0.001713 0.192693 -8.759390 -2.192510 6.469440 -0.000001 177.229000 6.458870 -175.971000 -39.081100 -0.002282 -0.040193 0.006616 -0.015771 11.748900 -40.985400 0.000008 0.000006 -6.696490 4.390080 -69.489600 -11.754300 -0.000006 -0.000006 -0.010758 0.276885 -5.322720
